<svg xmlns="http://www.w3.org/2000/svg" xmlns:xlink="http://www.w3.org/1999/xlink" id="Layer_1" width="55" height="55" x="0" y="0" enable-background="new 0 0 55 55" version="1.1" viewBox="0 0 55 55" xml:space="preserve"><g><path fill="#FFF" d="M50.964,6.856v25.314h-4.145h-2.524v2.524v4.407l-9.717-6.505l-0.637-0.427h-0.768H13.415V6.856H50.964 M53.488,4.332H10.891v30.363h22.283l13.646,9.134v-9.134h6.669V4.332z"/><rect width="13.871" height="3.102" x="18.319" y="23.829" fill="#FFF"/><rect width="27.916" height="3.103" x="18.145" y="17.625" fill="#FFF"/><rect width="27.916" height="3.101" x="18.145" y="11.422" fill="#FFF"/><polygon fill="#FFF" points="26 34 26 42 13.359 42 8 45.179 8 43.846 8 42 3 42 3 26 11 26 11 24 1 24 1 44 5 44 5 49.904 14.126 44 29 44 29 34"/></g></svg>